PathFileType	4	(X/Y/Z)	Patient4_TMGait_0pt5_02_left_26.trc.trc
DataRate	CameraRate	NumFrames	NumMarkers	Units	OrigDataRate	OrigDataStartFrame	OrigNumFrames
78.212290502793	78.212290502793	4	33	mm	78.212290502793	106	       141
Frame#	Time	Sacral			L.Shoulder			Chest			R.Shoulder			Neck			R.ASIS			L.ASIS			R.Thigh.Superior			R.Thigh.Lateral			R.Thigh.Inferior			R.Patella			L.Thigh.Superior			L.Thigh.Lateral			L.Thigh.Inferior			L.Patella			L.Shank.Superior			L.Shank.Lateral			L.Shank.Inferior			R.Shank.Superior			R.Shank.Lateral			R.Shank.Inferior			R.Heel			R.Midfoot.Superior			R.Midfoot.Lateral			R.Toe			L.Heel			L.Midfoot.Lateral			L.Midfoot.Superior			L.Toe			L.Elbow			L.Wrist			R.Elbow			R.Wrist			
		X1	Y1	Z1	X2	Y2	Z2	X3	Y3	Z3	X4	Y4	Z4	X5	Y5	Z5	X6	Y6	Z6	X7	Y7	Z7	X8	Y8	Z8	X9	Y9	Z9	X10	Y10	Z10	X11	Y11	Z11	X12	Y12	Z12	X13	Y13	Z13	X14	Y14	Z14	X15	Y15	Z15	X16	Y16	Z16	X17	Y17	Z17	X18	Y18	Z18	X19	Y19	Z19	X20	Y20	Z20	X21	Y21	Z21	X22	Y22	Z22	X23	Y23	Z23	X24	Y24	Z24	X25	Y25	Z25	X26	Y26	Z26	X27	Y27	Z27	X28	Y28	Z28	X29	Y29	Z29	X30	Y30	Z30	X31	Y31	Z31	X32	Y32	Z32	X33	Y33	Z33	

106	34.552500000000	610.504792306563	1009.657565100246	519.214193396304	764.133563087739	1447.376793591855	348.728614852279	886.433675375318	1367.856881322505	490.971486800076	826.472386520516	1431.195599885543	679.070298232773	782.832297001949	1499.079787786672	502.786605727208	844.872735545511	942.666124390233	614.858468765018	809.662512686200	971.047354389116	343.496570933440	869.387943294454	739.157577680423	584.307069428036	783.009775213019	634.163274110353	645.832158820336	854.603618571040	578.389873893371	564.510036167668	848.311240702594	491.432028943637	569.603061508479	892.410069970373	787.969738792677	362.719794331808	844.472858526178	660.699786342324	286.278529810078	949.719320015780	599.761883964902	341.857393822780	972.282419566707	522.912497100609	332.880689998182	936.681686118121	448.269098161015	323.938975589456	831.398271306077	345.365414552518	277.601152088295	887.716064483937	224.498319956122	327.327105746819	819.200652672187	403.531471165485	575.076078282424	743.665765130367	299.785634580384	630.758699099140	787.916327860342	206.109957581041	567.546247945236	652.549849342885	42.104448235501	527.986151456047	823.615500275432	97.349618549728	568.968457286145	734.030729716938	36.160136325977	605.103069851659	941.881282097572	46.071663172652	599.460635049732	759.341050214215	68.842908556351	370.203722467306	824.396612637367	64.946579258082	283.165792867624	911.255383806504	125.362360941033	300.084068376109	1032.432569268057	73.101687920322	258.009986784230	651.978231199906	1110.753121367848	237.216703900107	664.949939423869	849.354421947658	228.261173015855	879.878902299347	1081.326326879148	778.735622130567	1068.643249391426	911.111287409905	721.468173412998	
107	34.565285714286	610.421529797533	1009.702668559891	520.513556904648	763.259013079300	1447.289271074734	349.414377913490	886.472554239079	1367.483486856836	490.647719434629	828.007869111685	1430.769087940090	679.191390702588	783.056762714713	1498.814823953087	503.349366303673	845.075064126808	942.350640271205	614.767673100027	808.615303086444	970.876980541099	343.544505998702	867.632920063439	738.414003629451	583.871611613085	780.711088518913	633.914870172927	646.087644485658	850.999663497695	577.598310972697	564.385787338057	843.902858890097	490.863619994635	569.524744643415	890.709514075796	787.606102945878	363.839403021952	843.844819968854	660.651430159226	286.464586974916	947.918659329190	599.557104809575	344.130993742677	972.010604669775	524.918811035645	334.862518823235	940.298683490389	450.569176229067	324.795225290071	842.260818921184	341.786206142304	276.402884908757	905.304265622050	224.122658134201	326.355535312008	814.469213343016	403.066922092837	574.990135463161	738.720763266120	299.623298857908	630.900027914896	782.196619816196	205.792142257743	567.424796552854	646.139186348232	42.132232648915	528.000309421725	817.157053486942	97.207988444433	568.840557754698	727.609522027019	36.155997973943	605.110218127369	935.478325988757	45.836564255957	599.488211387959	786.029789280350	60.920305455406	367.062260277092	852.640738536876	60.820371499682	280.980296818997	935.740251839145	126.011022019876	299.082048469271	1060.331620343560	80.646278674338	258.815282235634	646.102439603556	1112.223928750512	239.522327255689	653.779687904210	850.567635867015	232.287418272807	888.533641396705	1082.334886985342	778.236426521123	1084.956499652150	922.984856763695	716.652650977149	
108	34.578071428571	610.402768609146	1009.721363993827	521.687505431179	762.498585892634	1447.164694470208	349.912448929099	886.546297408981	1367.069554846420	490.193736533907	829.487021954076	1430.318047694168	679.133874974092	783.314910912340	1498.515182354243	503.725956945441	845.315007134416	942.038871830153	614.621098806366	807.624373004620	970.588593453612	343.508683772592	865.974146198669	737.646995241891	583.560278346388	778.398951689539	633.666234189503	646.323491001676	847.434437122276	576.804496044541	564.316416506590	839.535616778301	490.289421127076	569.480046964812	888.838675299115	786.952290875203	364.906464323741	842.944214039308	660.424636764621	286.508076125964	945.841814821497	599.065277166774	346.162088800214	971.315813007855	526.639721861894	336.739289551820	943.356663009009	452.824639502029	325.706169397339	852.752819632675	338.716896211048	275.331953680163	922.022277539870	224.641572636681	325.809803212615	809.727200154067	402.626452241667	574.924645349974	733.747002072338	299.493093672445	631.048088600066	776.457026660456	205.501185130304	567.327337397032	639.721728244775	42.168440012581	528.027536713301	810.678342422823	97.052099872969	568.690312250639	721.188423218426	36.154556214340	605.122446753163	929.076516586147	45.585104461742	599.515153843348	811.760105950780	54.922980026995	364.442145247981	879.995497631495	58.136298033531	279.554232935850	959.237416578251	127.665595075018	298.805854942954	1086.814124749674	88.790117647031	260.958467485949	640.618728449387	1113.676125524130	241.634942336803	643.474690012564	851.863943996692	236.140842089070	896.812526989806	1083.440161504158	777.442079585336	1100.349596190770	935.614880486516	711.512523912425	
109	34.590857142857	610.459644146280	1009.721400127229	522.732697375578	761.856504536595	1447.014367236645	350.220827224630	886.655761068421	1366.638086370773	489.620565883238	830.895581264255	1429.870499212441	678.905772719917	783.604150332580	1498.198819288572	503.910457120919	845.600028511284	941.741304996540	614.429865292593	806.699398910589	970.216581406804	343.393337664126	864.405296236779	736.865131623427	583.373352657237	776.043216691063	633.435537224192	646.534222762150	843.893260855793	576.016138761329	564.310139486032	835.194326260540	489.716484691339	569.472149640126	886.886834879250	786.102407943844	365.849593988674	841.815304043524	660.051973261411	286.445420104170	943.651881884870	598.381797468178	347.829776500548	970.323307921902	528.118135265231	338.427970522477	945.920115102833	455.018219880896	326.616018941070	862.709767411302	336.181855715140	274.467696589651	937.676962264231	225.954232285448	325.663073742293	804.957889422549	402.221817540129	574.882202422539	728.718432824561	299.410550082152	631.194985699308	770.692416258249	205.250088651530	567.258043078981	633.297211473332	42.214704898576	528.066389343683	804.185138514864	96.890185162772	568.525312855250	714.766415574104	36.157645879363	605.139687065730	922.674755639048	45.324801195983	599.542680248817	836.142612653703	50.768599476925	362.458384366218	906.017236996979	56.756402543219	278.920209972454	981.428427588181	130.160840860071	299.185406901005	1111.553905985849	97.250544859188	264.210389838181	635.543062493192	1115.101331047787	243.524993376070	634.059846550006	853.210237817716	239.793967130574	904.709481862590	1084.638538891430	776.335516103055	1114.746185533665	948.955817162055	706.062049406597	
